<?xml version="1.0" standalone="no"?>
<!DOCTYPE svg PUBLIC "-//W3C//DTD SVG 20010904//EN"
 "http://www.w3.org/TR/2001/REC-SVG-20010904/DTD/svg10.dtd">
<svg version="1.0" xmlns="http://www.w3.org/2000/svg"
 width="17.000000pt" height="16.000000pt" viewBox="0 0 17.000000 16.000000"
 preserveAspectRatio="xMidYMid meet">

<g transform="translate(0.000000,16.000000) scale(0.100000,-0.100000)"
fill="#000000" stroke="none">
<path d="M22 144 c-25 -17 -29 -44 -7 -44 8 0 24 9 35 20 11 11 27 20 35 20 8
0 24 -9 35 -20 23 -23 50 -26 50 -6 0 41 -103 62 -148 30z"/>
<path d="M37 85 c-15 -22 -27 -50 -27 -62 0 -22 4 -23 75 -23 69 0 75 2 75 20
0 12 -6 33 -14 49 -17 32 -46 59 -46 42 0 -15 -27 -14 -32 1 -3 7 -16 -6 -31
-27z m77 -31 c7 -19 -10 -44 -29 -44 -19 0 -36 25 -29 44 8 21 50 21 58 0z"/>
<path d="M66 51 c-3 -5 1 -15 10 -22 13 -10 17 -10 24 1 5 8 6 18 4 22 -7 11
-31 10 -38 -1z"/>
</g>
</svg>
